<?xml version="1.0" encoding="UTF-8"?>
<svg id="Layer_1" xmlns="http://www.w3.org/2000/svg" xmlns:xlink="http://www.w3.org/1999/xlink" version="1.1" viewBox="0 0 2986 3000">
  <!-- Generator: Adobe Illustrator 29.2.1, SVG Export Plug-In . SVG Version: 2.1.0 Build 116)  -->
  <defs>
    <style>
      .st0 {
        fill: none;
      }

      .st1 {
        fill: #282562;
      }

      .st2 {
        fill: url(#linear-gradient);
      }

      .st3, .st4 {
        isolation: isolate;
      }

      .st5, .st4 {
        fill: #fff;
      }

      .st6 {
        fill: #faa51a;
      }

      .st4 {
        font-family: MyriadPro-Regular, 'Myriad Pro';
        font-size: 300px;
      }

      .st7 {
        clip-path: url(#clippath);
      }
    </style>
    <clipPath id="clippath">
      <path class="st0" d="M2409.85,1328.95c13.12,15,23.26,38.83,23.26,72.14h26.79c0-38.03-11.61-68.19-28.65-88.57-7.64,4.85-14.95,10.18-21.39,16.43h0Z"/>
    </clipPath>
    <linearGradient id="linear-gradient" x1="9923.23" y1="4563.56" x2="9923.57" y2="4563.56" gradientTransform="translate(-947699.31 -2064687.42) rotate(90) scale(208.2 -208.2)" gradientUnits="userSpaceOnUse">
      <stop offset="0" stop-color="#faa51a"/>
      <stop offset=".24" stop-color="#e29425"/>
      <stop offset=".75" stop-color="#a06928"/>
      <stop offset=".84" stop-color="#956026"/>
      <stop offset="1" stop-color="#956026"/>
    </linearGradient>
  </defs>
  <rect class="st1" x="-14" y="0" width="3000" height="3000"/>
  <g>
    <g>
      <path class="st5" d="M2446.5,1707.82c-29.64,0-102.28-70.04-105.36-73.02-29.64-28.72-79.64-82.87-81.46-122.9-.49-10.79,3.71-30.11,45.7-73.06,14.01-14.34,33.56-22.56,53.63-22.56h87.49v29.46h-87.49c-12.19,0-24.06,4.99-32.56,13.69-37.46,38.32-37.34,51-37.33,51.13.94,20.7,27.88,59.36,70.3,100.89,43.18,42.28,79.43,65.69,87.6,66.93-.18-.03-.35-.03-.51-.03v29.46h0Z"/>
      <path class="st5" d="M2446.5,1707.82v-29.46c-.2-.06-.33,0-.51.03,8.16-1.23,44.42-24.65,87.6-66.93,42.42-41.53,69.35-80.19,70.29-100.89,0-.12.13-12.81-37.33-51.13-8.51-8.7-20.38-13.69-32.56-13.69h-87.49v-29.46h87.49c20.07,0,39.62,8.22,53.63,22.56,41.98,42.94,46.18,62.26,45.69,73.06-1.81,40.02-51.81,94.18-81.46,122.89-3.07,2.98-75.72,73.02-105.36,73.02"/>
      <rect class="st5" x="2274.4" y="1497.84" width="344.21" height="26.79"/>
      <rect class="st5" x="2433.11" y="1431.01" width="26.79" height="262.07"/>
      <path class="st6" d="M2373.23,1282.62c-33.11,0-50.43,23.09-50.43,45.9,0,39.4,44.55,58.1,90.92,59.86-.97-9.93-3.07-19.09-6.25-27.19-30.54-2.52-57.89-13.64-57.89-32.67,0-9.24,6.21-19.11,23.64-19.11,24.15,0,59.88,29.14,59.88,91.68h26.79c0-74.15-44.06-118.46-86.66-118.46"/>
      <rect class="st0" x="2259.65" y="1282.62" width="405.95" height="425.2"/>
      <g class="st7">
        <rect class="st2" x="2395.47" y="1306.43" width="78.77" height="100.69" transform="translate(-326.4 976.18) rotate(-21.28)"/>
      </g>
      <path class="st6" d="M2644.14,1339.44c-20.44,21.7-48.11,34.15-77.92,35.03-8.2.24-16.28-.4-24.16-1.87,16.98-9.83,28.15-24.35,28.15-44.09,0-22.79-17.33-45.88-50.44-45.88-42.61,0-86.68,44.3-86.68,118.47h26.79c0-62.54,35.73-91.68,59.89-91.68,17.44,0,23.65,9.86,23.65,19.1,0,14.87-16.69,24.91-38.54,29.78-6.11,1.38-12.64,2.29-19.32,2.85-1.99,5.1-3.56,10.63-4.71,16.5,4.8,3.45,9.77,6.61,14.92,9.39,14.79,8.04,30.88,13.34,47.65,15.61,7.77,1.07,15.67,1.5,23.68,1.26,37.66-1.12,72.64-16.85,98.49-44.27l-21.45-20.19h0Z"/>
      <rect class="st0" x="2259.65" y="1282.62" width="405.95" height="425.2"/>
    </g>
    <g class="st3">
      <g class="st3">
        <text class="st4" transform="translate(320.7 1642.38)"><tspan x="0" y="0">Think Goodies</tspan></text>
      </g>
    </g>
  </g>
</svg>